<svg
   xmlns="http://www.w3.org/2000/svg"
   viewBox="0 0 200 200"
   role="img"
   aria-label="ClassCompass Logo"
 >
  <g id="icon-graphic">
    <g>
      <path fill="#45c4a0" d="M 170.71094,29.289062 149.49805,50.501953 A 70,70 0 0 0 100,30 a 70,70 0 0 0 -70,70 70,70 0 0 0 70,70 70,70 0 0 0 49.49805,-20.50195 l 21.21289,21.21289 A 100,100 0 0 0 200,100.02344 v -0.04688 a 100,100 0 0 0 -29.28906,-70.6875 z" />
      <path fill="#343434" d="M 100,0 A 100,100 0 0 0 0,100 100,100 0 0 0 100,200 100,100 0 0 0 170.71094,170.71094 L 149.49805,149.49805 A 70,70 0 0 1 100,170 70,70 0 0 1 30,100 70,70 0 0 1 100,30 70,70 0 0 1 149.49805,50.501953 L 170.71094,29.289062 A 100,100 0 0 0 100,0 Z" />
    </g>
    <g fill="#343434" transform="translate(0,16.958012)">
      <path d="m 99.999996,83.041998 -15.13208,-15.13208 15.13208,-82.14071 z" />
      <path d="M 100,83.041989 115.13208,98.174069 100,180.31477 Z" />
      <path d="m 99.999996,83.041998 -15.13208,15.13208 -82.1407,-15.13208 z" />
      <path d="m 100,83.041989 15.13208,-15.132075 82.1407,15.132075 z" />
    </g>
    <g fill="#45c4a0" transform="translate(0,16.958012)">
      <path d="M 99.999996,83.041998 115.13208,67.909914 99.999996,-14.230794 Z" />
      <path d="M 100,83.041989 84.86792,98.174069 100,180.31477 Z" />
      <path d="m 99.999996,83.041998 -15.13208,-15.13208 -82.1407,15.13208 z" />
      <path d="m 100,83.041989 15.13208,15.13208 82.1407,-15.13208 z" />
    </g>
    <g fill="#343434" transform="translate(4.666902,45.762355)">
      <path d="M 95.333096,54.237645 H 81.653504 L 51.365176,10.269726 Z" />
      <path d="M 95.333096,54.237646 V 40.558055 L 139.30102,10.269727 Z" />
      <path d="m 95.333097,54.237645 h 13.679593 l 30.28833,43.967919 z" />
      <path d="m 95.333097,54.237645 v 13.67959 l -43.96792,30.288326 z" />
    </g>
    <g fill="#45c4a0" transform="translate(4.666902,45.762355)">
      <path d="M 95.333096,54.237645 V 40.558056 L 51.365178,10.269728 Z" />
      <path d="M 95.333098,54.237645 H 109.01269 L 139.30102,10.269728 Z" />
      <path d="m 95.333097,54.237645 v 13.67959 l 43.967923,30.288329 z" />
      <path d="M 95.333097,54.237643 H 81.653507 L 51.365177,98.205561 Z" />
    </g>
  </g>
</svg>
