<?xml version="1.0" encoding="UTF-8" standalone="no"?>
<svg
   viewBox="0 0 200 200"
   width="500"
   height="500"
   version="1.1"
   id="svg16"
   sodipodi:docname="temp.svg"
   inkscape:version="1.4.2 (f4327f4, 2025-05-13)"
   xml:space="preserve"
   xmlns:inkscape="http://www.inkscape.org/namespaces/inkscape"
   xmlns:sodipodi="http://sodipodi.sourceforge.net/DTD/sodipodi-0.dtd"
   xmlns="http://www.w3.org/2000/svg"
   xmlns:svg="http://www.w3.org/2000/svg"><defs
     id="defs16" /><sodipodi:namedview
     id="namedview16"
     pagecolor="#ffffff"
     bordercolor="#000000"
     borderopacity="0.25"
     inkscape:showpageshadow="2"
     inkscape:pageopacity="0.0"
     inkscape:pagecheckerboard="0"
     inkscape:deskcolor="#d1d1d1"
     inkscape:zoom="1.4142136"
     inkscape:cx="212.83914"
     inkscape:cy="228.74904"
     inkscape:window-width="1920"
     inkscape:window-height="1009"
     inkscape:window-x="-8"
     inkscape:window-y="-8"
     inkscape:window-maximized="1"
     inkscape:current-layer="g37" /><g
     id="g37"
     inkscape:label="Logo"><g
       id="g36"
       inkscape:label="Background"><path
         d="M 100,0 A 100,100 0 0 0 0,100 100,100 0 0 0 100,200 100,100 0 0 0 170.71094,170.71094 L 149.49805,149.49805 A 70,70 0 0 1 100,170 70,70 0 0 1 30,100 70,70 0 0 1 100,30 70,70 0 0 1 149.49805,50.501953 L 170.71094,29.289062 A 100,100 0 0 0 100,0 Z"
         style="display:inline;fill:#343434;stroke-width:40"
         id="path27"
         sodipodi:insensitive="true"
         inkscape:label="C Outline" /><path
         d="M 170.71094,29.289062 149.49805,50.501953 A 70,70 0 0 0 100,30 a 70,70 0 0 0 -70,70 70,70 0 0 0 70,70 70,70 0 0 0 49.49805,-20.50195 l 21.21289,21.21289 A 100,100 0 0 0 200,100.02344 v -0.04688 a 100,100 0 0 0 -29.28906,-70.6875 z"
         style="display:inline;opacity:1;fill:#45c4a0;stroke-width:40"
         id="path26"
         sodipodi:insensitive="true"
         inkscape:label="Cyan Background" /></g><g
       id="g35"
       inkscape:label="Compass Rose"
       style="display:inline"><g
         id="g32"
         inkscape:label="Cyan Big"
         transform="translate(0,16.958012)"
         style="display:inline"><path
           style="opacity:1;fill:#45c4a0;fill-opacity:1;stroke:none;stroke-width:16;stroke-linecap:butt;stroke-linejoin:miter;stroke-dasharray:none;stroke-opacity:1;paint-order:normal"
           d="M 99.999996,83.041998 115.13208,67.909914 99.999996,-14.230794 Z"
           id="path30" /><path
           style="fill:#45c4a0;fill-opacity:1;stroke:none;stroke-width:16;stroke-linecap:butt;stroke-linejoin:miter;stroke-dasharray:none;stroke-opacity:1;paint-order:normal"
           d="M 100,83.041989 84.86792,98.174069 100,180.31477 Z"
           id="path30-79" /><path
           style="fill:#45c4a0;fill-opacity:1;stroke:none;stroke-width:16;stroke-linecap:butt;stroke-linejoin:miter;stroke-dasharray:none;stroke-opacity:1;paint-order:normal"
           d="m 99.999996,83.041998 -15.13208,-15.13208 -82.1407,15.13208 z"
           id="path30-3" /><path
           style="fill:#45c4a0;fill-opacity:1;stroke:none;stroke-width:16;stroke-linecap:butt;stroke-linejoin:miter;stroke-dasharray:none;stroke-opacity:1;paint-order:normal"
           d="m 100,83.041989 15.13208,15.13208 82.1407,-15.13208 z"
           id="path30-33" /></g><g
         id="g31"
         inkscape:label="Grey Big"
         transform="translate(0,16.958012)"
         style="display:inline"><path
           style="fill:#343434;fill-opacity:1;stroke:none;stroke-width:16;stroke-linecap:butt;stroke-linejoin:miter;stroke-dasharray:none;stroke-opacity:1;paint-order:normal"
           d="m 99.999996,83.041998 -15.13208,-15.13208 15.13208,-82.14071 z"
           id="path30-7" /><path
           style="fill:#343434;fill-opacity:1;stroke:none;stroke-width:16;stroke-linecap:butt;stroke-linejoin:miter;stroke-dasharray:none;stroke-opacity:1;paint-order:normal"
           d="M 100,83.041989 115.13208,98.174069 100,180.31477 Z"
           id="path30-7-5" /><path
           style="fill:#343434;fill-opacity:1;stroke:none;stroke-width:16;stroke-linecap:butt;stroke-linejoin:miter;stroke-dasharray:none;stroke-opacity:1;paint-order:normal"
           d="m 99.999996,83.041998 -15.13208,15.13208 -82.1407,-15.13208 z"
           id="path30-7-1" /><path
           style="fill:#343434;fill-opacity:1;stroke:none;stroke-width:16;stroke-linecap:butt;stroke-linejoin:miter;stroke-dasharray:none;stroke-opacity:1;paint-order:normal"
           d="m 100,83.041989 15.13208,-15.132075 82.1407,15.132075 z"
           id="path30-7-4" /></g><g
         id="g34"
         inkscape:label="Cyan Small"
         transform="translate(4.666902,45.762355)"><path
           style="fill:#45c4a0;fill-opacity:1;stroke:none;stroke-width:16;stroke-linecap:butt;stroke-linejoin:miter;stroke-dasharray:none;stroke-opacity:1;paint-order:normal"
           d="M 95.333096,54.237645 V 40.558056 L 51.365178,10.269728 Z"
           id="path30-1" /><path
           style="fill:#45c4a0;fill-opacity:1;stroke:none;stroke-width:16;stroke-linecap:butt;stroke-linejoin:miter;stroke-dasharray:none;stroke-opacity:1;paint-order:normal"
           d="M 95.333098,54.237645 H 109.01269 L 139.30102,10.269728 Z"
           id="path30-1-1" /><path
           style="fill:#45c4a0;fill-opacity:1;stroke:none;stroke-width:16;stroke-linecap:butt;stroke-linejoin:miter;stroke-dasharray:none;stroke-opacity:1;paint-order:normal"
           d="m 95.333097,54.237645 v 13.67959 l 43.967923,30.288329 z"
           id="path30-1-7" /><path
           style="fill:#45c4a0;fill-opacity:1;stroke:none;stroke-width:16;stroke-linecap:butt;stroke-linejoin:miter;stroke-dasharray:none;stroke-opacity:1;paint-order:normal"
           d="M 95.333097,54.237643 H 81.653507 L 51.365177,98.205561 Z"
           id="path30-1-77" /></g><g
         id="g33"
         inkscape:label="Grey Small"
         transform="translate(4.666902,45.762355)"><path
           style="fill:#343434;fill-opacity:1;stroke:none;stroke-width:16;stroke-linecap:butt;stroke-linejoin:miter;stroke-dasharray:none;stroke-opacity:1;paint-order:normal"
           d="M 95.333096,54.237645 H 81.653504 L 51.365176,10.269726 Z"
           id="path30-1-9" /><path
           style="fill:#343434;fill-opacity:1;stroke:none;stroke-width:16;stroke-linecap:butt;stroke-linejoin:miter;stroke-dasharray:none;stroke-opacity:1;paint-order:normal"
           d="M 95.333096,54.237646 V 40.558055 L 139.30102,10.269727 Z"
           id="path30-1-9-3" /><path
           style="fill:#343434;fill-opacity:1;stroke:none;stroke-width:16;stroke-linecap:butt;stroke-linejoin:miter;stroke-dasharray:none;stroke-opacity:1;paint-order:normal"
           d="m 95.333097,54.237645 h 13.679593 l 30.28833,43.967919 z"
           id="path30-1-9-4" /><path
           style="fill:#343434;fill-opacity:1;stroke:none;stroke-width:16;stroke-linecap:butt;stroke-linejoin:miter;stroke-dasharray:none;stroke-opacity:1;paint-order:normal"
           d="m 95.333097,54.237645 v 13.67959 l -43.96792,30.288326 z"
           id="path30-1-9-9" /></g></g></g></svg>
