<svg xmlns="http://www.w3.org/2000/svg" viewBox="0 0 500 500" role="img" aria-label="ClassCompass Logo" width="500" height="500">
    <style>
        @keyframes fillIn {
            100% { fill: var(--final-color); }
        }

        [class^="svg-elem-"] {
            fill: transparent;
            animation: fillIn 0.7s cubic-bezier(0.47, 0, 0.745, 0.715) forwards;
        }

        .svg-elem-1 { animation-delay: 0.8s; --final-color: #45c4a0; }
        .svg-elem-2 { animation-delay: 0.9s; --final-color: #343434; }
        .svg-elem-3 { animation-delay: 1.0s; --final-color: #45c4a0; }
        .svg-elem-4 { animation-delay: 1.1s; --final-color: #343434; }
        .svg-elem-5 { animation-delay: 1.2s; --final-color: #343434; }
        .svg-elem-6 { animation-delay: 1.3s; --final-color: #343434; }
        .svg-elem-7 { animation-delay: 1.4s; --final-color: #343434; }
        .svg-elem-8 { animation-delay: 1.5s; --final-color: #343434; }
        .svg-elem-9 { animation-delay: 1.6s; --final-color: #45c4a0; }
        .svg-elem-10 { animation-delay: 1.7s; --final-color: #45c4a0; }
        .svg-elem-11 { animation-delay: 1.8s; --final-color: #45c4a0; }
        .svg-elem-12 { animation-delay: 1.9s; --final-color: #45c4a0; }
        .svg-elem-13 { animation-delay: 2.0s; --final-color: #343434; }
        .svg-elem-14 { animation-delay: 2.1s; --final-color: #343434; }
        .svg-elem-15 { animation-delay: 2.2s; --final-color: #343434; }
        .svg-elem-16 { animation-delay: 2.3s; --final-color: #343434; }
        .svg-elem-17 { animation-delay: 2.4s; --final-color: #45c4a0; }
        .svg-elem-18 { animation-delay: 2.5s; --final-color: #45c4a0; }
        .svg-elem-19 { animation-delay: 2.6s; --final-color: #45c4a0; }
        .svg-elem-20 { animation-delay: 2.7s; --final-color: #45c4a0; }
    </style>
    
    <g id="icon-graphic" transform="translate(6, 6)">
        <circle cx="100" cy="100" r="106" class="svg-elem-1"></circle>
        <circle cx="100" cy="100" r="104" class="svg-elem-2"></circle>
        <g>
            <path d="M 170.71094,29.289062 149.49805,50.501953 A 70,70 0 0 0 100,30 a 70,70 0 0 0 -70,70 70,70 0 0 0 70,70 70,70 0 0 0 49.49805,-20.50195 l 21.21289,21.21289 A 100,100 0 0 0 200,100.02344 v -0.04688 a 100,100 0 0 0 -29.28906,-70.6875 z" class="svg-elem-3"></path>
            <path d="M 100,0 A 100,100 0 0 0 0,100 100,100 0 0 0 100,200 100,100 0 0 0 170.71094,170.71094 L 149.49805,149.49805 A 70,70 0 0 1 100,170 70,70 0 0 1 30,100 70,70 0 0 1 100,30 70,70 0 0 1 149.49805,50.501953 L 170.71094,29.289062 A 100,100 0 0 0 100,0 Z" class="svg-elem-4"></path>
        </g>
        <g transform="translate(0,16.958012)">
            <path d="m 99.999996,83.041998 -15.13208,-15.13208 15.13208,-82.14071 z" class="svg-elem-5"></path>
            <path d="M 100,83.041989 115.13208,98.174069 100,180.31477 Z" class="svg-elem-6"></path>
            <path d="m 99.999996,83.041998 -15.13208,15.13208 -82.1407,-15.13208 z" class="svg-elem-7"></path>
            <path d="m 100,83.041989 15.13208,-15.132075 82.1407,15.132075 z" class="svg-elem-8"></path>
        </g>
        <g transform="translate(0,16.958012)">
            <path d="M 99.999996,83.041998 115.13208,67.909914 99.999996,-14.230794 Z" class="svg-elem-9"></path>
            <path d="M 100,83.041989 84.86792,98.174069 100,180.31477 Z" class="svg-elem-10"></path>
            <path d="m 99.999996,83.041998 -15.13208,-15.13208 -82.1407,15.13208 z" class="svg-elem-11"></path>
            <path d="m 100,83.041989 15.13208,15.13208 82.1407,-15.13208 z" class="svg-elem-12"></path>
        </g>
        <g transform="translate(4.666902,45.762355)">
            <path d="M 95.333096,54.237645 H 81.653504 L 51.365176,10.269726 Z" class="svg-elem-13"></path>
            <path d="M 95.333096,54.237646 V 40.558055 L 139.30102,10.269727 Z" class="svg-elem-14"></path>
            <path d="m 95.333097,54.237645 h 13.679593 l 30.28833,43.967919 z" class="svg-elem-15"></path>
            <path d="m 95.333097,54.237645 v 13.67959 l -43.96792,30.288326 z" class="svg-elem-16"></path>
        </g>
        <g transform="translate(4.666902,45.762355)">
            <path d="M 95.333096,54.237645 V 40.558056 L 51.365178,10.269728 Z" class="svg-elem-17"></path>
            <path d="M 95.333098,54.237645 H 109.01269 L 139.30102,10.269728 Z" class="svg-elem-18"></path>
            <path d="m 95.333097,54.237645 v 13.67959 l 43.967923,30.288329 z" class="svg-elem-19"></path>
            <path d="M 95.333097,54.237643 H 81.653507 L 51.365177,98.205561 Z" class="svg-elem-20"></path>
        </g>
    </g>
</svg>